<svg width="0" height="0" class="hidden">
  <symbol version="1.1" id="sunorange" xmlns="http://www.w3.org/2000/svg" xmlns:xlink="http://www.w3.org/1999/xlink" x="0px" y="0px" xml:space="preserve" viewBox="0 0 504.122 504.122">
    <circle cx="252.051" cy="252.046" r="252.046"></circle>
    <path d="M430.282,73.823c98.446,98.422,98.446,258.016,0,356.454c-98.43,98.462-258.016,98.462-356.447-0.008
	"></path>
    <circle cx="252.059" cy="252.062" r="185.509"></circle>
    <path d="M252.067,66.544c102.463-0.008,185.509,83.046,185.509,185.517
	c0.016,102.463-83.046,185.517-185.509,185.509"></path>
    <circle cx="252.067" cy="252.062" r="123.463"></circle>
    <path d="M164.759,164.762c48.215-48.215,126.385-48.215,174.6,0c48.215,48.223,48.215,126.385,0,174.6"></path>
    <g></g>
    <g></g>
    <g></g>
    <g></g>
    <g></g>
    <g></g>
    <g></g>
    <g></g>
    <g></g>
    <g></g>
    <g></g>
    <g></g>
    <g></g>
    <g></g>
    <g></g>
  </symbol>
  <symbol version="1.1" id="sun-detail" xmlns="http://www.w3.org/2000/svg" xmlns:xlink="http://www.w3.org/1999/xlink" x="0px" y="0px" xml:space="preserve" viewBox="0 0 512 512">
    <path d="M256,402.469c-37.529,0-75.046-14.28-103.618-42.851c-28.528-28.528-43.758-66.461-42.885-106.809
	c0.822-37.928,16.052-73.595,42.885-100.428c57.134-57.134,150.099-57.135,207.235,0c5.377,5.377,5.377,14.095,0,19.474
	c-5.377,5.377-14.095,5.377-19.474,0c-46.396-46.398-121.893-46.398-168.291,0c-21.791,21.79-34.16,50.752-34.826,81.55
	c-0.709,32.768,11.658,63.572,34.826,86.74c46.398,46.398,121.894,46.398,168.291,0c22.478-22.477,34.855-52.361,34.854-84.147
	c0-7.605,6.164-13.769,13.769-13.769s13.769,6.164,13.769,13.769c0.001,39.143-15.241,75.944-42.92,103.622
	C331.054,388.181,293.521,402.469,256,402.469z"></path>
    <circle cx="255.996" cy="255.996" r="84.033"></circle>
    <g>
      <path d="M256,353.798c-26.123,0-50.681-10.173-69.154-28.645c-18.471-18.471-28.644-43.03-28.644-69.153
		s10.173-50.681,28.645-69.154c18.471-18.471,43.03-28.644,69.153-28.644s50.681,10.173,69.154,28.645
		c18.471,18.471,28.644,43.03,28.644,69.153s-10.173,50.681-28.645,69.154C306.681,343.625,282.123,353.798,256,353.798z
		 M256,185.74c-18.766,0-36.41,7.309-49.68,20.579C193.049,219.59,185.74,237.234,185.74,256s7.309,36.41,20.579,49.68
		c13.271,13.271,30.914,20.579,49.68,20.579c18.766,0,36.41-7.309,49.68-20.579S326.26,274.766,326.26,256
		c0-18.766-7.309-36.41-20.579-49.68C292.41,193.049,274.766,185.74,256,185.74z"></path>
      <path d="M256,86.299c-7.605,0-13.769-6.164-13.769-13.769V13.769C242.231,6.164,248.395,0,256,0
		c7.605,0,13.769,6.164,13.769,13.769V72.53C269.769,80.135,263.605,86.299,256,86.299z"></path>
      <path d="M256,512c-7.605,0-13.769-6.164-13.769-13.769V439.47c0-7.605,6.164-13.769,13.769-13.769
		c7.605,0,13.769,6.164,13.769,13.769v58.761C269.769,505.836,263.605,512,256,512z"></path>
      <path d="M385.731,140.038c-3.523,0-7.048-1.345-9.736-4.033c-5.377-5.377-5.377-14.095,0-19.474
		l12.544-12.544c5.377-5.375,14.095-5.375,19.474,0c5.377,5.377,5.377,14.095,0,19.474l-12.544,12.544
		C392.78,138.692,389.255,140.038,385.731,140.038z"></path>
      <path d="M113.723,412.044c-3.524,0-7.048-1.345-9.736-4.033c-5.377-5.377-5.377-14.095,0-19.474
		l12.544-12.544c5.377-5.375,14.095-5.375,19.474,0c5.377,5.377,5.377,14.095,0,19.474l-12.544,12.544
		C120.772,410.7,117.247,412.044,113.723,412.044z"></path>
      <path d="M126.269,140.038c-3.524,0-7.048-1.345-9.736-4.033l-12.544-12.544
		c-5.377-5.377-5.377-14.095,0-19.474c5.377-5.375,14.095-5.375,19.474,0l12.544,12.544c5.377,5.377,5.377,14.095,0,19.474
		C133.316,138.692,129.792,140.038,126.269,140.038z"></path>
      <path d="M398.275,412.044c-3.523,0-7.048-1.345-9.736-4.033l-12.544-12.544
		c-5.377-5.377-5.377-14.095,0-19.474c5.377-5.375,14.095-5.375,19.474,0l12.544,12.544c5.377,5.377,5.377,14.095,0,19.474
		C405.324,410.7,401.8,412.044,398.275,412.044z"></path>
      <path d="M498.231,269.769H439.47c-7.605,0-13.769-6.164-13.769-13.769c0-7.605,6.164-13.769,13.769-13.769
		h58.761c7.605,0,13.769,6.164,13.769,13.769C512,263.605,505.836,269.769,498.231,269.769z"></path>
      <path d="M72.53,269.769H13.769C6.164,269.769,0,263.605,0,256c0-7.605,6.164-13.769,13.769-13.769H72.53
		c7.605,0,13.769,6.164,13.769,13.769C86.299,263.605,80.135,269.769,72.53,269.769z"></path>
    </g>
    <g></g>
    <g></g>
    <g></g>
    <g></g>
    <g></g>
    <g></g>
    <g></g>
    <g></g>
    <g></g>
    <g></g>
    <g></g>
    <g></g>
    <g></g>
    <g></g>
    <g></g>
  </symbol>
  <symbol version="1.1" id="humidity-detail" xmlns="http://www.w3.org/2000/svg" xmlns:xlink="http://www.w3.org/1999/xlink" x="0px" y="0px" xml:space="preserve" viewBox="0 0 512 512">
    <path d="M256,285.767c-64.789,0-123.282,29.246-164.852,76.234C106.463,439.055,174.452,497.116,256,497.116
	s149.537-58.061,164.852-135.114C379.282,315.014,320.789,285.767,256,285.767z M317.005,419.73
	c-18.495,0-33.488-14.994-33.488-33.488s14.994-33.488,33.488-33.488c18.496,0,33.488,14.994,33.488,33.488
	C350.494,404.738,335.501,419.73,317.005,419.73z"></path>
    <g>
      <path d="M438.966,329.049c0-49.613-21.797-110.506-64.783-180.983c-4.279-7.018-13.437-9.238-20.456-4.956
		c-7.018,4.279-9.237,13.439-4.956,20.456c40.097,65.741,60.429,121.418,60.429,165.483c0,0.11-0.004,0.22-0.004,0.33
		c-43.146-37.931-96.519-58.496-153.195-58.496s-110.049,20.565-153.194,58.495c0-0.11-0.004-0.22-0.004-0.329
		c0-105.374,116.495-249.024,153.213-291.675c9.247,10.716,23.54,27.809,39.702,49.036c4.98,6.54,14.317,7.805,20.858,2.825
		s7.805-14.318,2.825-20.858c-28.874-37.922-51.508-62.55-52.458-63.58C264.125,1.738,260.157,0,256,0s-8.125,1.738-10.944,4.796
		c-7.024,7.62-172.022,188.179-172.022,324.254c0,12.029,1.182,24.091,3.516,35.853C93.491,450.137,168.962,512,256,512
		c8.159,0,16.217-0.543,24.135-1.6c2.639-0.351,5.263-0.761,7.869-1.225c3.91-0.697,7.781-1.52,11.611-2.462
		c67.638-16.668,121.805-71.226,135.835-141.809c0.001-0.009,0.001-0.018,0.003-0.025
		C437.784,353.127,438.966,341.072,438.966,329.049z M249.311,482.084c-0.749-0.033-1.488-0.1-2.236-0.143
		c-1.468-0.085-2.937-0.165-4.395-0.292c-0.881-0.077-1.753-0.19-2.63-0.281c-1.311-0.137-2.625-0.265-3.928-0.436
		c-0.939-0.124-1.868-0.281-2.803-0.421c-1.228-0.185-2.459-0.359-3.678-0.573c-0.963-0.168-1.916-0.371-2.874-0.557
		c-1.177-0.229-2.358-0.451-3.527-0.708c-0.972-0.213-1.933-0.457-2.899-0.689c-1.139-0.274-2.28-0.542-3.411-0.841
		c-0.973-0.258-1.936-0.543-2.902-0.82c-1.107-0.317-2.215-0.628-3.312-0.969c-0.969-0.301-1.927-0.627-2.887-0.947
		c-1.078-0.359-2.157-0.714-3.224-1.095c-0.961-0.344-1.913-0.71-2.865-1.073c-1.048-0.399-2.097-0.796-3.135-1.217
		c-0.951-0.385-1.893-0.792-2.835-1.197c-1.021-0.438-2.041-0.878-3.05-1.337c-0.938-0.427-1.866-0.871-2.794-1.317
		c-0.993-0.476-1.984-0.956-2.965-1.453c-0.923-0.467-1.837-0.95-2.749-1.436c-0.966-0.513-1.929-1.033-2.883-1.567
		c-0.905-0.506-1.801-1.025-2.694-1.549c-0.938-0.551-1.871-1.106-2.797-1.676c-0.887-0.546-1.767-1.101-2.64-1.665
		c-0.908-0.585-1.811-1.177-2.707-1.782c-0.866-0.583-1.725-1.176-2.579-1.776c-0.88-0.619-1.753-1.247-2.62-1.884
		c-0.844-0.621-1.68-1.247-2.511-1.884c-0.851-0.652-1.692-1.316-2.529-1.986c-0.82-0.656-1.634-1.317-2.441-1.99
		c-0.82-0.685-1.63-1.381-2.436-2.084c-0.793-0.691-1.585-1.386-2.365-2.093c-0.79-0.716-1.566-1.445-2.341-2.177
		c-0.767-0.725-1.532-1.451-2.283-2.191c-0.759-0.749-1.505-1.512-2.249-2.276c-0.735-0.756-1.472-1.511-2.192-2.282
		c-0.729-0.78-1.441-1.575-2.154-2.37c-0.705-0.787-1.412-1.572-2.102-2.374c-0.697-0.81-1.374-1.636-2.052-2.46
		c-0.673-0.816-1.35-1.63-2.006-2.46c-0.664-0.839-1.305-1.698-1.953-2.553c-0.639-0.844-1.283-1.683-1.905-2.542
		c-0.63-0.868-1.234-1.755-1.846-2.637c-0.604-0.872-1.216-1.738-1.802-2.622c-0.597-0.9-1.165-1.819-1.744-2.733
		c-0.566-0.893-1.14-1.78-1.688-2.686c-0.566-0.938-1.103-1.896-1.649-2.847c-0.522-0.908-1.057-1.808-1.56-2.728
		c-0.539-0.985-1.046-1.991-1.564-2.992c-0.472-0.909-0.96-1.81-1.414-2.731c-0.521-1.058-1.008-2.137-1.505-3.209
		c-0.412-0.887-0.844-1.765-1.24-2.663c-0.549-1.246-1.058-2.515-1.576-3.78c-0.305-0.744-0.631-1.476-0.924-2.227
		c-0.786-2.012-1.532-4.045-2.234-6.099c-0.252-0.737-0.47-1.49-0.713-2.233c-0.438-1.344-0.883-2.685-1.283-4.047
		c-0.255-0.866-0.475-1.749-0.714-2.623c-0.32-1.165-0.649-2.326-0.944-3.504c40.042-42.393,92.539-65.649,148.627-65.649
		c56.086,0,108.584,23.254,148.626,65.657c-0.327,1.313-0.691,2.611-1.052,3.908c-0.202,0.726-0.382,1.462-0.595,2.182
		c-0.484,1.645-1.014,3.267-1.549,4.886c-0.153,0.461-0.287,0.933-0.445,1.392c-0.71,2.078-1.463,4.133-2.259,6.166
		c-0.141,0.36-0.301,0.71-0.444,1.069c-0.664,1.658-1.34,3.31-2.058,4.938c-0.319,0.72-0.667,1.421-0.994,2.136
		c-0.576,1.25-1.145,2.503-1.752,3.734c-0.397,0.804-0.825,1.59-1.235,2.384c-0.576,1.118-1.145,2.24-1.747,3.34
		c-0.455,0.832-0.939,1.643-1.409,2.465c-0.595,1.04-1.183,2.085-1.801,3.109c-0.505,0.835-1.036,1.652-1.555,2.477
		c-0.621,0.985-1.235,1.975-1.878,2.944c-0.546,0.825-1.116,1.63-1.679,2.444c-0.652,0.942-1.299,1.889-1.971,2.816
		c-0.588,0.81-1.195,1.601-1.798,2.399c-0.682,0.902-1.359,1.805-2.058,2.691c-0.627,0.792-1.271,1.566-1.913,2.346
		c-0.71,0.863-1.418,1.727-2.148,2.573c-0.661,0.768-1.34,1.521-2.015,2.276c-0.741,0.828-1.482,1.655-2.24,2.466
		c-0.694,0.743-1.404,1.469-2.112,2.197c-0.771,0.793-1.545,1.584-2.332,2.361c-0.726,0.714-1.465,1.415-2.204,2.115
		c-0.801,0.758-1.604,1.512-2.42,2.252c-0.756,0.686-1.523,1.359-2.292,2.029c-0.831,0.723-1.664,1.441-2.509,2.145
		c-0.783,0.653-1.576,1.296-2.372,1.933c-0.859,0.688-1.724,1.369-2.597,2.039c-0.81,0.621-1.627,1.231-2.448,1.835
		c-0.887,0.653-1.782,1.296-2.682,1.93c-0.835,0.586-1.674,1.165-2.52,1.735c-0.915,0.618-1.84,1.223-2.768,1.82
		c-0.856,0.551-1.716,1.095-2.584,1.628c-0.944,0.581-1.895,1.148-2.852,1.709c-0.878,0.515-1.758,1.024-2.646,1.521
		c-0.97,0.543-1.95,1.07-2.932,1.593c-0.897,0.478-1.795,0.951-2.703,1.411c-0.996,0.505-2.002,0.991-3.011,1.475
		c-0.914,0.438-1.828,0.877-2.752,1.296c-1.024,0.466-2.057,0.911-3.093,1.356c-0.929,0.399-1.857,0.799-2.795,1.179
		c-1.051,0.426-2.112,0.829-3.173,1.232c-0.941,0.357-1.881,0.72-2.831,1.06c-1.076,0.385-2.164,0.744-3.252,1.106
		c-0.953,0.317-1.904,0.64-2.864,0.939c-1.104,0.342-2.219,0.656-3.332,0.975c-0.96,0.274-1.917,0.558-2.883,0.814
		c-1.136,0.301-2.283,0.57-3.429,0.845c-0.96,0.231-1.916,0.473-2.883,0.685c-1.174,0.258-2.359,0.481-3.541,0.711
		c-0.954,0.186-1.902,0.387-2.861,0.554c-1.223,0.214-2.459,0.39-3.691,0.574c-0.93,0.14-1.856,0.296-2.791,0.42
		c-1.305,0.171-2.622,0.299-3.938,0.438c-0.874,0.092-1.743,0.204-2.62,0.281c-1.46,0.128-2.932,0.207-4.401,0.293
		c-0.744,0.043-1.482,0.11-2.23,0.143c-2.219,0.097-4.45,0.149-6.689,0.149C253.756,482.228,251.532,482.182,249.311,482.084z"></path>
      <path d="M317.005,434.614c26.673,0,48.372-21.7,48.372-48.372c0-26.672-21.699-48.372-48.372-48.372
		s-48.372,21.7-48.372,48.372S290.332,434.614,317.005,434.614z M317.005,367.637c10.259,0,18.605,8.345,18.605,18.605
		c0,10.259-8.345,18.605-18.605,18.605c-10.259,0-18.605-8.345-18.605-18.605C298.401,375.982,306.748,367.637,317.005,367.637z"></path>
    </g>
    <g></g>
    <g></g>
    <g></g>
    <g></g>
    <g></g>
    <g></g>
    <g></g>
    <g></g>
    <g></g>
    <g></g>
    <g></g>
    <g></g>
    <g></g>
    <g></g>
    <g></g>
  </symbol>
  <symbol version="1.1" id="wind-detail" xmlns="http://www.w3.org/2000/svg" xmlns:xlink="http://www.w3.org/1999/xlink" x="0px" y="0px" xml:space="preserve" viewBox="0 0 512 512">
    <path d="M86.814,305.815H14.583C6.53,305.815,0,299.286,0,291.232s6.53-14.583,14.583-14.583h72.231
	c8.053,0,14.583,6.529,14.583,14.583S94.868,305.815,86.814,305.815z"></path>
    <circle cx="427.624" cy="361.023" r="69.79"></circle>
    <g>
      <path d="M427.626,276.648c-0.639,0-1.272,0.034-1.908,0.048c-0.318-0.02-0.634-0.048-0.958-0.048H148.071
		c-8.053,0-14.583,6.529-14.583,14.583s6.53,14.583,14.583,14.583h215.833c-12.848,14.809-20.65,34.107-20.65,55.206
		c0,46.523,37.849,84.373,84.371,84.373c46.523,0,84.373-37.849,84.373-84.373S474.151,276.648,427.626,276.648z M427.626,416.228
		c-30.441,0-55.205-24.765-55.205-55.206s24.764-55.206,55.205-55.206s55.206,24.765,55.206,55.206S458.067,416.228,427.626,416.228
		z"></path>
      <path d="M426.809,247.1H78.545c-8.053,0-14.583-6.529-14.583-14.583s6.53-14.583,14.583-14.583h348.264
		c30.893,0,56.024-25.131,56.024-56.024s-25.131-56.024-56.024-56.024c-30.892,0-56.023,25.131-56.023,56.024
		c0,8.054-6.53,14.583-14.583,14.583c-8.053,0-14.583-6.529-14.583-14.583c0-46.974,38.215-85.191,85.189-85.191
		S512,114.935,512,161.909S473.783,247.1,426.809,247.1z"></path>
      <path d="M134.959,188.981H14.583C6.53,188.981,0,182.452,0,174.398s6.53-14.583,14.583-14.583h120.376
		c8.053,0,14.583,6.529,14.583,14.583S143.012,188.981,134.959,188.981z"></path>
      <path d="M243.693,188.981h-47.484c-8.053,0-14.583-6.529-14.583-14.583s6.53-14.583,14.583-14.583h47.484
		c19.515,0,35.394-15.877,35.394-35.392s-15.878-35.392-35.394-35.392s-35.392,15.877-35.392,35.392
		c0,8.054-6.53,14.583-14.583,14.583c-8.053,0-14.583-6.529-14.583-14.583c0-35.598,28.959-64.559,64.559-64.559
		s64.56,28.961,64.56,64.559S279.292,188.981,243.693,188.981z"></path>
      <path d="M256.187,452.136c-32.241,0-58.471-26.229-58.471-58.471c0-8.054,6.53-14.583,14.583-14.583
		s14.583,6.529,14.583,14.583c0,16.158,13.147,29.305,29.305,29.305s29.305-13.147,29.305-29.305s-13.147-29.305-29.305-29.305
		H78.545c-8.053,0-14.583-6.529-14.583-14.583s6.53-14.583,14.583-14.583h177.641c32.241,0,58.471,26.229,58.471,58.471
		S288.427,452.136,256.187,452.136z"></path>
    </g>
    <g></g>
    <g></g>
    <g></g>
    <g></g>
    <g></g>
    <g></g>
    <g></g>
    <g></g>
    <g></g>
    <g></g>
    <g></g>
    <g></g>
    <g></g>
    <g></g>
    <g></g>
  </symbol>
  <symbol version="1.1" id="search" xmlns="http://www.w3.org/2000/svg" xmlns:xlink="http://www.w3.org/1999/xlink" x="0px" y="0px" xml:space="preserve" viewBox="0 0 52.966 52.966">
    <path d="M51.704,51.273L36.845,35.82c3.79-3.801,6.138-9.041,6.138-14.82c0-11.58-9.42-21-21-21s-21,9.42-21,21s9.42,21,21,21
	c5.083,0,9.748-1.817,13.384-4.832l14.895,15.491c0.196,0.205,0.458,0.307,0.721,0.307c0.25,0,0.499-0.093,0.693-0.279
	C52.074,52.304,52.086,51.671,51.704,51.273z M21.983,40c-10.477,0-19-8.523-19-19s8.523-19,19-19s19,8.523,19,19
	S32.459,40,21.983,40z"></path>
    <g></g>
    <g></g>
    <g></g>
    <g></g>
    <g></g>
    <g></g>
    <g></g>
    <g></g>
    <g></g>
    <g></g>
    <g></g>
    <g></g>
    <g></g>
    <g></g>
    <g></g>
  </symbol>
  <symbol version="1.1" id="waiting" xmlns="http://www.w3.org/2000/svg" xmlns:xlink="http://www.w3.org/1999/xlink" x="0px" y="0px" xml:space="preserve" viewBox="0 0 297 297">
    <g>
      <path d="M251.01,277.015h-17.683l-0.002-31.558c0-31.639-17.358-60.726-48.876-81.901c-3.988-2.682-6.466-8.45-6.466-15.055
		s2.478-12.373,6.464-15.053c31.52-21.178,48.878-50.264,48.88-81.904V19.985h17.683c5.518,0,9.992-4.475,9.992-9.993
		c0-5.518-4.475-9.992-9.992-9.992H45.99c-5.518,0-9.992,4.475-9.992,9.992c0,5.519,4.475,9.993,9.992,9.993h17.683v31.558
		c0,31.642,17.357,60.728,48.875,81.903c3.989,2.681,6.467,8.448,6.467,15.054s-2.478,12.373-6.466,15.053
		c-31.519,21.177-48.876,50.263-48.876,81.903v31.558H45.99c-5.518,0-9.992,4.475-9.992,9.993c0,5.519,4.475,9.992,9.992,9.992
		h205.02c5.518,0,9.992-4.474,9.992-9.992C261.002,281.489,256.527,277.015,251.01,277.015z M83.657,245.456
		c0-33.425,25.085-55.269,40.038-65.314c9.583-6.441,15.304-18.269,15.304-31.642s-5.721-25.2-15.305-31.642
		c-14.952-10.046-40.037-31.89-40.037-65.315V19.985h129.686l-0.002,31.558c0,33.424-25.086,55.269-40.041,65.317
		c-9.581,6.441-15.301,18.269-15.301,31.64s5.72,25.198,15.303,31.642c14.953,10.047,40.039,31.892,40.041,65.314v31.558h-3.312
		c-8.215-30.879-50.138-64.441-55.377-68.537c-3.616-2.828-8.694-2.826-12.309,0c-5.239,4.095-47.163,37.658-55.378,68.537h-3.311
		V245.456z M189.033,277.015h-81.067c6.584-15.391,25.383-34.873,40.534-47.76C163.652,242.142,182.45,261.624,189.033,277.015z"></path>
      <path d="M148.497,191.014c2.628,0,5.206-1.069,7.064-2.928c1.868-1.858,2.928-4.437,2.928-7.064s-1.06-5.206-2.928-7.065
		c-1.858-1.857-4.436-2.927-7.064-2.927c-2.628,0-5.206,1.069-7.064,2.927c-1.859,1.859-2.928,4.438-2.928,7.065
		s1.068,5.206,2.928,7.064C143.291,189.944,145.869,191.014,148.497,191.014z"></path>
      <path d="M148.5,138.019c5.519,0,9.992-4.474,9.992-9.992v-17.664c0-5.518-4.474-9.993-9.992-9.993s-9.992,4.475-9.992,9.993v17.664
		C138.508,133.545,142.981,138.019,148.5,138.019z"></path>
    </g>
    <g></g>
    <g></g>
    <g></g>
    <g></g>
    <g></g>
    <g></g>
    <g></g>
    <g></g>
    <g></g>
    <g></g>
    <g></g>
    <g></g>
    <g></g>
    <g></g>
    <g></g>
  </symbol>
  <symbol version="1.1" id="warning" xmlns="http://www.w3.org/2000/svg" xmlns:xlink="http://www.w3.org/1999/xlink" x="0px" y="0px" xml:space="preserve" viewBox="0 0 512.001 512.001">
    <path d="M16.29,408.438L217.785,59.437c16.984-29.418,59.446-29.418,76.43,0l201.495,349.001
	c16.984,29.418-4.246,66.191-38.215,66.191H54.504C20.536,474.627-0.694,437.856,16.29,408.438z"></path>
    <g>
      <circle cx="255.999" cy="371.772" r="23.155"></circle>
      <path d="M256.001,307.455c-11.367,0-20.582-9.215-20.582-20.582V199.4c0-11.367,9.215-20.582,20.582-20.582
		c11.367,0,20.582,9.215,20.582,20.582v87.473C276.583,298.241,267.368,307.455,256.001,307.455z"></path>
    </g>
    <g>
      <path d="M504.624,403.292L303.128,54.291C293.291,37.253,275.673,27.083,256,27.083
		c-19.672,0-37.289,10.172-47.125,27.208L7.378,403.292c-9.837,17.038-9.837,37.38,0,54.418s27.454,27.208,47.128,27.208h402.992
		c19.672,0,37.289-10.172,47.127-27.208S514.46,420.329,504.624,403.292z M486.799,447.419
		c-6.116,10.594-17.071,16.917-29.303,16.917H54.504c-12.233,0-23.187-6.325-29.303-16.917c-6.116-10.594-6.116-23.242,0-33.836
		L226.698,64.582c6.116-10.594,17.07-16.917,29.303-16.917s23.188,6.325,29.304,16.917L486.8,413.583
		C492.916,424.177,492.916,436.825,486.799,447.419z"></path>
      <path d="M372.118,423.172h-1.029c-5.683,0-10.291,4.608-10.291,10.291s4.608,10.291,10.291,10.291h1.029
		c5.683,0,10.291-4.608,10.291-10.291S377.801,423.172,372.118,423.172z"></path>
      <path d="M267.484,74.882c-3.326-5.773-8.623-6.636-11.484-6.636c-2.858,0-8.15,0.861-11.478,6.626
		L43.021,423.884c-3.32,5.762-1.422,10.77,0.006,13.246c1.429,2.474,4.821,6.625,11.478,6.625h270.788
		c5.683,0,10.291-4.608,10.291-10.291s-4.608-10.291-10.291-10.291H67.197L256.001,96.156l188.803,327.017h-28.607
		c-5.683,0-10.291,4.608-10.291,10.291s4.608,10.291,10.291,10.291h41.3c6.661,0,10.052-4.154,11.474-6.623
		c1.43-2.474,3.333-7.488,0.003-13.258L267.484,74.882z"></path>
      <path d="M256.001,405.22c18.442,0,33.446-15.003,33.446-33.446c0-18.442-15.003-33.446-33.446-33.446
		c-18.441,0-33.446,15.003-33.446,33.446C222.555,390.217,237.558,405.22,256.001,405.22z M256.001,358.91
		c7.094,0,12.864,5.77,12.864,12.864c0,7.094-5.77,12.864-12.864,12.864c-7.094,0-12.864-5.77-12.864-12.864
		C243.137,364.681,248.907,358.91,256.001,358.91z"></path>
      <path d="M256.001,317.746c17.023,0,30.873-13.85,30.873-30.873V199.4c0-17.023-13.85-30.873-30.873-30.873
		s-30.873,13.85-30.873,30.873v87.473C225.128,303.897,238.977,317.746,256.001,317.746z M245.71,199.4
		c0-5.674,4.617-10.291,10.291-10.291c5.674,0,10.291,4.617,10.291,10.291v87.473c0,5.674-4.617,10.291-10.291,10.291
		c-5.674,0-10.291-4.617-10.291-10.291V199.4z"></path>
    </g>
    <g></g>
    <g></g>
    <g></g>
    <g></g>
    <g></g>
    <g></g>
    <g></g>
    <g></g>
    <g></g>
    <g></g>
    <g></g>
    <g></g>
    <g></g>
    <g></g>
    <g></g>
  </symbol>
    <symbol version="1.1" id="location" xmlns="http://www.w3.org/2000/svg" xmlns:xlink="http://www.w3.org/1999/xlink" x="0px" y="0px" xml:space="preserve" viewBox="0 0 368.666 368.666">
    <g id="XMLID_2_">
      <g>
        <g>
          <path d="M184.333,0C102.01,0,35.036,66.974,35.036,149.297c0,33.969,11.132,65.96,32.193,92.515
				c27.27,34.383,106.572,116.021,109.934,119.479l7.169,7.375l7.17-7.374c3.364-3.46,82.69-85.116,109.964-119.51
				c21.042-26.534,32.164-58.514,32.164-92.485C333.63,66.974,266.656,0,184.333,0z M285.795,229.355
				c-21.956,27.687-80.92,89.278-101.462,110.581c-20.54-21.302-79.483-82.875-101.434-110.552
				c-18.228-22.984-27.863-50.677-27.863-80.087C55.036,78.002,113.038,20,184.333,20c71.294,0,129.297,58.002,129.296,129.297
				C313.629,178.709,304.004,206.393,285.795,229.355z"></path>
          <path d="M184.333,59.265c-48.73,0-88.374,39.644-88.374,88.374c0,48.73,39.645,88.374,88.374,88.374s88.374-39.645,88.374-88.374
				S233.063,59.265,184.333,59.265z M184.333,216.013c-37.702,0-68.374-30.673-68.374-68.374c0-37.702,30.673-68.374,68.374-68.374
				s68.373,30.673,68.374,68.374C252.707,185.341,222.035,216.013,184.333,216.013z"></path>
        </g>
      </g>
    </g>
    <g></g>
    <g></g>
    <g></g>
    <g></g>
    <g></g>
    <g></g>
    <g></g>
    <g></g>
    <g></g>
    <g></g>
    <g></g>
    <g></g>
    <g></g>
    <g></g>
    <g></g>
  </symbol>
  <symbol id="icon-smile" viewBox="0 0 24 24">
    <path d="M23 12c0-3.037-1.232-5.789-3.222-7.778s-4.741-3.222-7.778-3.222-5.789 1.232-7.778 3.222-3.222 4.741-3.222 7.778 1.232 5.789 3.222 7.778 4.741 3.222 7.778 3.222 5.789-1.232 7.778-3.222 3.222-4.741 3.222-7.778zM21 12c0 2.486-1.006 4.734-2.636 6.364s-3.878 2.636-6.364 2.636-4.734-1.006-6.364-2.636-2.636-3.878-2.636-6.364 1.006-4.734 2.636-6.364 3.878-2.636 6.364-2.636 4.734 1.006 6.364 2.636 2.636 3.878 2.636 6.364zM7.2 14.6c0 0 0.131 0.173 0.331 0.383 0.145 0.153 0.338 0.341 0.577 0.54 0.337 0.281 0.772 0.59 1.297 0.853 0.705 0.352 1.579 0.624 2.595 0.624s1.89-0.272 2.595-0.624c0.525-0.263 0.96-0.572 1.297-0.853 0.239-0.199 0.432-0.387 0.577-0.54 0.2-0.21 0.331-0.383 0.331-0.383 0.331-0.442 0.242-1.069-0.2-1.4s-1.069-0.242-1.4 0.2c-0.041 0.050-0.181 0.206-0.181 0.206-0.1 0.105-0.237 0.239-0.408 0.382-0.243 0.203-0.549 0.419-0.91 0.6-0.48 0.239-1.050 0.412-1.701 0.412s-1.221-0.173-1.701-0.413c-0.36-0.18-0.667-0.397-0.91-0.6-0.171-0.143-0.308-0.277-0.408-0.382-0.14-0.155-0.181-0.205-0.181-0.205-0.331-0.442-0.958-0.531-1.4-0.2s-0.531 0.958-0.2 1.4zM9 10c0.552 0 1-0.448 1-1s-0.448-1-1-1-1 0.448-1 1 0.448 1 1 1zM15 10c0.552 0 1-0.448 1-1s-0.448-1-1-1-1 0.448-1 1 0.448 1 1 1z"></path>
  </symbol>
</svg>
